# xmcd
#
# Track frame offsets:
# 150
# 16767
# 43972
# 67695
# 90405
# 113417
# 142465
# 159140
# 177142
# 206877
# 227655
#
# Disc length: 3380 seconds
#
#
# Revision: 0
# Processed by: cddbd v1.5.1PL0 Copyright (c) Steve Scherf et al.
# Submitted via: FreeRIP 2.931 
#
DISCID=860d320b
DTITLE=Trust - Trust the Blues
DYEAR=1900
DGENRE=Blues
TTITLE0=Tell Me Baby
TTITLE1=Sweet Secret
TTITLE2=Six'O Two
TTITLE3=You Got The Blues
TTITLE4=The Lie
TTITLE5=Too Much To Bear
TTITLE6=Carol
TTITLE7=What They Call The Blues
TTITLE8=French Kiss Blues
TTITLE9=Dust My Blues
TTITLE10=Picture Of Fantasy
EXTD=
EXTT0=
EXTT1=
EXTT2=
EXTT3=
EXTT4=
EXTT5=
EXTT6=
EXTT7=
EXTT8=
EXTT9=
EXTT10=
PLAYORDER=
